<svg xmlns="http://www.w3.org/2000/svg" data-name="Layer 1" viewBox="0 0 32 32" id="LanguageLearning"><rect width="9.89" height="1.078" x="7.907" y="20.037" fill="#0f1035" class="color000000 svgShape"></rect><rect width="4.895" height="1.078" x="7.907" y="16.475" fill="#0f1035" class="color000000 svgShape"></rect><rect width="1.923" height="1.078" x="7.907" y="12.913" fill="#0f1035" class="color000000 svgShape"></rect><rect width="1.923" height="1.078" x="7.907" y="9.351" fill="#0f1035" class="color000000 svgShape"></rect><path d="M19.473,26.039A2.464,2.464,0,0,1,17.012,28.5H8.692a2.464,2.464,0,0,1-2.461-2.461V6.907A2.464,2.464,0,0,1,8.692,4.446H9.83V3.368H8.692A3.543,3.543,0,0,0,5.153,6.907V26.039a3.544,3.544,0,0,0,3.539,3.539h8.32a3.544,3.544,0,0,0,3.539-3.539v-9.03H19.473Z" fill="#0f1035" class="color000000 svgShape"></path><path d="M24.918,2.422H13.22a1.931,1.931,0,0,0-1.929,1.929v9.658a1.54,1.54,0,0,0,1.539,1.539h.819a.616.616,0,0,1,.614.615v1.109a1.1,1.1,0,0,0,1.7.919l3.875-2.541a.61.61,0,0,1,.338-.1h5.128a1.541,1.541,0,0,0,1.539-1.539V4.351A1.932,1.932,0,0,0,24.918,2.422Zm.851,11.587a.462.462,0,0,1-.461.461H20.18a1.694,1.694,0,0,0-.929.278l-3.9,2.543c-.012-.006-.012-.011-.012-.019V16.163a1.694,1.694,0,0,0-1.692-1.693H12.83a.462.462,0,0,1-.461-.461V4.351A.852.852,0,0,1,13.22,3.5h11.7a.852.852,0,0,1,.851.851Z" fill="#0f1035" class="color000000 svgShape"></path><path d="M14.812 12.752l.956.5 1.24-2.371h4.121l1.241 2.371.955-.5L19.068 4.616zM17.572 9.8l1.5-2.861 1.5 2.861zM11.647 26.175a1.205 1.205 0 101.205-1.205A1.2 1.2 0 0011.647 26.175z" fill="#0f1035" class="color000000 svgShape"></path></svg>